# xmcd CD database file
#
# Track frame offsets:
#	150
#	22250
#	54367
#
# Disc length: 1237 seconds
#
# Revision: 1
# Processed by: cddbd v1.5PL3 Copyright (c) Steve Scherf et al.
# Submitted via: CDex 1.51
#
DISCID=2004d303
DTITLE=GOING UNDER GROUND - トワイライト
DYEAR=2003
DGENRE=JPop
TTITLE0=トワイライト
TTITLE1=足音のブルース
TTITLE2=トワイライト (PV)
EXTD=YEAR: 2003
EXTT0=
EXTT1=
EXTT2=
PLAYORDER=
